<svg enable-background="new 0 0 135.388 95.898" height="96" viewBox="0 0 135.388 95.898" width="136" xmlns="http://www.w3.org/2000/svg" xmlns:xlink="http://www.w3.org/1999/xlink"><radialGradient id="a" cx="3.5451" cy="3.8874" gradientUnits="userSpaceOnUse" r="149.1488"><stop offset="0" stop-color="#f04af4"/><stop offset="1" stop-color="#002f94"/></radialGradient><path d="m80.707 95.478s3.267-1.978 7.819-6.388c4.839-4.688-.927-8.677-1.818-17.658h-37.485c0 8.915 6.522 13.147 1.4 17.676-4.748 4.198-6.514 5.559-6.514 5.559z" fill="#d2f1ff"/><path d="m87.84 72.512c-.033-.605-.534-1.08-1.14-1.08h-.009c-.005 0-.009.002-.012.005s-.005.008-.005.012c.043 5.485 2.353 9.081 3.125 11.845.529 1.895.555 3.57-1.866 5.832-2.031 1.899-3.978 3.584-6.222 5.078-.477.317-1.069.412-1.641.412h-35.712c-.354 0-.64.287-.64.64s.287.64.64.64h35.624c.641 0 1.268-.156 1.832-.46 1.494-.804 4.442-3.617 7.396-6.33 4.476-4.106-.918-8.39-1.37-16.594z" fill="#8bd2ff"/><path d="m49.872 75.645 37.623 1.293 1.034-.459-.683-2.6z" fill="#002f94"/><path d="m135.388 8.827v57.34h-135.388v-57.34c0-4.875 3.952-8.827 8.827-8.827h117.734c4.875 0 8.827 3.952 8.827 8.827z" fill="url(#a)"/><path d="m135.388 64.45v2.368c0 4.884-3.943 8.827-8.827 8.827h-117.734c-4.884 0-8.827-3.942-8.827-8.826v-2.369z" fill="#d2f1ff"/></svg>