<svg enable-background="new 0 0 389.25 276.07" height="277" viewBox="0 0 389.25 276.07" width="390" xmlns="http://www.w3.org/2000/svg" xmlns:xlink="http://www.w3.org/1999/xlink"><linearGradient id="a"><stop offset="0" stop-color="#2254d1"/><stop offset="1" stop-color="#002f94"/></linearGradient><linearGradient id="b" gradientUnits="userSpaceOnUse" x1="102.0429" x2="415.7192" xlink:href="#a" y1="57.6692" y2="371.3455"/><linearGradient id="c" gradientUnits="userSpaceOnUse" x1="194.6252" x2="194.6252" y1="-29.2197" y2="61.1919"><stop offset="0" stop-color="#4480e6"/><stop offset="1" stop-color="#4480e6" stop-opacity="0"/></linearGradient><linearGradient id="d" gradientUnits="userSpaceOnUse" x1="188.9348" x2="503.7632" xlink:href="#a" y1="-28.728" y2="286.1004"/><radialGradient id="e" cx="239.3806" cy="27.1406" gradientUnits="userSpaceOnUse" r="213.3728"><stop offset="0" stop-color="#f04af4"/><stop offset="1" stop-color="#002f94"/></radialGradient><linearGradient id="f"><stop offset="0" stop-color="#fb8cff"/><stop offset="1" stop-color="#f04af4"/></linearGradient><linearGradient id="g" gradientUnits="userSpaceOnUse" x1="319.456" x2="347.9265" xlink:href="#f" y1="109.1851" y2="137.6556"/><linearGradient id="h" gradientUnits="userSpaceOnUse" x1="126.8805" x2="72.0808" xlink:href="#a" y1="137.7662" y2="137.7662"/><linearGradient id="i" gradientUnits="userSpaceOnUse" x1="124.2394" x2="439.0678" xlink:href="#a" y1="35.9674" y2="350.7958"/><linearGradient id="j" gradientUnits="userSpaceOnUse" x1="287.3847" x2="287.3847" xlink:href="#f" y1="94.9542" y2="238.1857"/><linearGradient id="k" gradientUnits="userSpaceOnUse" x1="368.2245" x2="368.2245" xlink:href="#f" y1="94.9542" y2="238.1857"/><linearGradient id="l" gradientUnits="userSpaceOnUse" x1="278.2959" x2="149.6885" y1="289.9209" y2="161.3136"><stop offset="0" stop-color="#2254d1"/><stop offset="1" stop-color="#2254d1" stop-opacity="0"/></linearGradient><path d="m389.25 32.096v239.974c0 2.209-1.791 4-4 4h-381.25c-2.209 0-4-1.791-4-4v-245.373c0-1.061.421-2.078 1.172-2.828l22.696-22.697c.751-.751 1.768-1.172 2.829-1.172h334.55c1.637 0 2.963 1.327 2.963 2.963v22.077h17.984c3.897 0 7.056 3.159 7.056 7.056z" fill="url(#b)"/><path d="m10 266.07v-236.888l19.182-19.182h325.028v25.041h25.04v231.029z" fill="url(#c)"/><path d="m389.25 26.697v245.373c0 2.209-1.791 4-4 4h-121.39c-2.209 0-4-1.791-4-4v-245.373c0-1.061.421-2.078 1.172-2.828l22.697-22.697c.75-.75 1.768-1.172 2.828-1.172h75.996c1.061 0 2.078.421 2.828 1.172l22.697 22.697c.751.75 1.172 1.767 1.172 2.828z" fill="#002f94"/><path d="m347.199 171.587 42.051 83.279v-166.558z" fill="url(#d)"/><path d="m239.86 39.04v205.03c0 6.627-5.373 12-12 12h-195.86c-6.627 0-12-5.373-12-12v-24.126c0-4.801 2.861-9.14 7.274-11.03l8.792-3.767c4.413-1.891 7.274-6.229 7.274-11.03v-105.124c0-4.801-2.861-9.14-7.274-11.03l-8.792-3.767c-4.413-1.89-7.274-6.229-7.274-11.03v-24.126c0-6.627 5.373-12 12-12h195.86c6.627 0 12 5.373 12 12z" fill="url(#e)"/><path d="m163.405 128.593h-87.327c-.553 0-1-.447-1-1v-100.553h2v99.553h86.327z" fill="#002f94"/><path d="m167.542 124.965h-87.326c-.553 0-1-.447-1-1v-96.925h2v95.925h86.326z" fill="#002f94"/><path d="m159.687 121.336h-75.335c-.553 0-1-.447-1-1v-93.296h2v92.296h74.335z" fill="#002f94"/><path d="m175.695 117.655h-87.327c-.553 0-1-.447-1-1v-89.615h2v88.615h86.327z" fill="#002f94"/><ellipse cx="331.486" cy="121.215" fill="url(#g)" rx="13.584" ry="14.87"/><path d="m107.731 180.354h-64.391v-83.969h64.391c4.418 0 8 3.582 8 8v67.969c-0 4.418-3.582 8-8 8z" fill="#002f94"/><ellipse cx="84.858" cy="137.766" fill="url(#h)" rx="22.843" ry="34.419"/><path d="m375.341 56.662h-98.225c-.553 0-1-.447-1-1s.447-1 1-1h98.225c1.654 0 3-1.346 3-3v-11.817c0-.553.447-1 1-1s1 .447 1 1v11.817c0 2.757-2.244 5-5 5z" fill="#2254d1"/><g fill="#002f94"><path d="m84.859 138.766c-.377 0-.737-.214-.907-.577-4.322-9.268-5.276-21.905-2.553-33.806.122-.539.666-.88 1.197-.752.539.123.875.659.752 1.197-2.627 11.481-1.724 23.637 2.416 32.515.233.501.017 1.096-.483 1.329-.137.064-.28.094-.422.094z"/><path d="m84.857 138.766c-.152 0-.308-.035-.453-.109-7.345-3.743-12.74-12.606-15.192-24.955-.108-.541.244-1.067.786-1.175.541-.113 1.068.244 1.175.786 2.331 11.734 7.353 20.103 14.14 23.563.492.251.688.853.437 1.345-.178.346-.529.545-.893.545z"/><path d="m78.056 140.421c-5.459 0-10.896-2.899-15.405-8.43-.349-.428-.284-1.058.144-1.407.43-.35 1.058-.283 1.407.144 5.888 7.226 13.443 9.521 20.21 6.145.497-.248 1.095-.044 1.341.448.247.494.046 1.095-.448 1.341-2.367 1.18-4.809 1.759-7.249 1.759z"/><path d="m66.273 152.981c-.335 0-.669-.011-1.005-.033-.551-.037-.968-.514-.932-1.064.037-.551.52-.95 1.064-.932 6.956.47 13.896-4.64 18.569-13.646.254-.49.857-.682 1.349-.427.49.255.681.858.427 1.349-4.833 9.313-12.05 14.753-19.472 14.753z"/><path d="m74.483 168.006c-.262 0-.522-.102-.719-.305-.384-.397-.373-1.03.023-1.414 6.354-6.143 10.213-17.066 10.07-28.508-.007-.553.436-1.006.987-1.013h.013c.547 0 .993.439 1 .987.148 11.974-3.943 23.458-10.68 29.971-.193.188-.444.282-.694.282z"/><path d="m87.481 172.13c-.082 0-.164-.01-.247-.03-.535-.137-.859-.681-.724-1.216 2.829-11.145 1.829-23.967-2.546-32.668-.248-.493-.049-1.095.444-1.343.498-.247 1.096-.048 1.343.444 4.579 9.106 5.638 22.475 2.698 34.059-.114.453-.521.754-.968.754z"/><path d="m99.496 163.245c-.467 0-.885-.328-.979-.804-1.479-7.396-5.267-20.315-14.022-23.743-.515-.202-.769-.782-.567-1.296.202-.515.784-.768 1.296-.567 9.642 3.775 13.696 17.418 15.255 25.214.108.542-.243 1.068-.784 1.177-.068.013-.135.019-.199.019z"/><path d="m106.189 145.32c-.285 0-.568-.121-.766-.355-3.114-3.696-11.301-11.715-20.042-6.346-.47.286-1.086.143-1.376-.329-.289-.471-.142-1.087.329-1.376 6.985-4.284 15.439-1.758 22.618 6.762.355.423.302 1.054-.12 1.409-.187.158-.416.235-.643.235z"/><path d="m84.858 138.766c-.122 0-.245-.022-.365-.069-.514-.201-.768-.781-.565-1.296 5.117-13.051 15.104-14.634 20.604-14.418.553.021.982.486.96 1.038-.022.553-.536.989-1.038.96-6.079-.253-14.233 1.847-18.665 13.15-.154.394-.531.635-.931.635z"/><path d="m84.858 138.766c-.541 0-.986-.432-1-.976-.366-14.778 6.717-24.819 10.971-29.489.372-.406 1.004-.437 1.413-.065.408.372.438 1.005.065 1.413-4.053 4.447-10.799 14.012-10.449 28.093.014.552-.423 1.011-.976 1.024-.007 0-.016 0-.024 0z"/></g><path d="m375.341 78.75h-98.225c-.553 0-1-.447-1-1s.447-1 1-1h98.225c1.654 0 3-1.346 3-3v-11.819c0-.553.447-1 1-1s1 .447 1 1v11.819c0 2.757-2.244 5-5 5z" fill="#2254d1"/><path d="m314.91 171.587-55.051-83.279-8.948 85.168 8.948 81.39z" fill="url(#i)"/><path d="m259.859 88.308 55.051 83.279-55.051 83.279 43.828-83.279z" fill="url(#j)"/><path d="m389.25 88.308-42.051 83.279 42.051 83.279-33.701-83.279z" fill="url(#k)"/><path d="m371.644 49.905h-4.696c-1.189 0-2.152-.964-2.152-2.152 0-1.189.964-2.152 2.152-2.152h4.696c1.189 0 2.152.964 2.152 2.152 0 1.189-.964 2.152-2.152 2.152z" fill="#2254d1"/><path d="m106.064 75.708h133.796v-23.623h-133.796c-2.265 0-4.101 1.836-4.101 4.101v15.42c-.001 2.266 1.835 4.102 4.101 4.102z" fill="#002f94"/><path d="m206.946 255.271h-58.736v-159.273h91.65v126.36c0 18.177-14.736 32.913-32.914 32.913z" fill="#002f94"/><path d="m224.727 180.815h-79.5c-4.116 0-7.452-3.336-7.452-7.452 0-4.116 3.336-7.452 7.452-7.452h79.5c4.116 0 7.452 3.336 7.452 7.452 0 4.116-3.336 7.452-7.452 7.452z" fill="#002f94"/><path d="m224.727 202.728h-79.5c-4.116 0-7.452-3.336-7.452-7.452 0-4.116 3.336-7.452 7.452-7.452h79.5c4.116 0 7.452 3.336 7.452 7.452 0 4.116-3.336 7.452-7.452 7.452z" fill="#002f94"/><path d="m115.079 66.049h-4.696c-1.189 0-2.152-.964-2.152-2.152 0-1.189.964-2.152 2.152-2.152h4.696c1.189 0 2.152.964 2.152 2.152 0 1.188-.964 2.152-2.152 2.152z" fill="#2254d1"/><path d="m161.253 107.266h-4.696c-1.189 0-2.152-.964-2.152-2.152 0-1.189.964-2.152 2.152-2.152h4.696c1.189 0 2.152.964 2.152 2.152 0 1.189-.964 2.152-2.152 2.152z" fill="#2254d1"/><path d="m161.253 129.481h-4.696c-1.189 0-2.152-.964-2.152-2.152 0-1.189.964-2.152 2.152-2.152h4.696c1.189 0 2.152.964 2.152 2.152 0 1.188-.964 2.152-2.152 2.152z" fill="#2254d1"/><path d="m161.253 151.696h-4.696c-1.189 0-2.152-.964-2.152-2.152 0-1.189.964-2.152 2.152-2.152h4.696c1.189 0 2.152.964 2.152 2.152 0 1.188-.964 2.152-2.152 2.152z" fill="#2254d1"/><path d="m28.073 245.818c-.245 0-.489-.089-.683-.27-.403-.376-.425-1.009-.048-1.413 10.71-11.471 59.146-15.624 68.746-16.34 23.65-1.764 28.604-14.211 32.221-23.299 2.182-5.484 4.066-10.221 9.465-10.221.553 0 1 .447 1 1s-.447 1-1 1c-3.854 0-5.33 3.237-7.607 8.96-3.812 9.579-9.032 22.697-33.93 24.554-5.805.433-57.014 4.552-67.434 15.711-.196.212-.462.318-.73.318z" fill="#002f94"/><path d="m25.339 230.172c-.186 0-.373-.052-.541-.159-.464-.3-.598-.919-.298-1.383 11.525-17.867 24.15-16.262 37.514-14.558 8.005 1.017 16.283 2.071 24.949-.962 11.413-3.998 20.17-14.294 27.897-23.378 7.927-9.32 14.773-17.369 22.914-17.369.553 0 1 .447 1 1s-.447 1-1 1c-7.217 0-13.785 7.723-21.391 16.665-7.892 9.277-16.836 19.793-28.759 23.969-9.113 3.191-17.629 2.107-25.863 1.059-13.276-1.689-24.739-3.151-35.581 13.658-.191.297-.513.458-.841.458z" fill="#002f94"/><path d="m331.7 129.082c-4.337 0-7.866-3.528-7.866-7.866s3.529-7.867 7.866-7.867c4.338 0 7.867 3.529 7.867 7.867s-3.529 7.866-7.867 7.866zm0-12.734c-2.683 0-4.866 2.184-4.866 4.867s2.183 4.866 4.866 4.866c2.684 0 4.867-2.183 4.867-4.866s-2.184-4.867-4.867-4.867z" fill="#002f94"/><path d="m331.7 131.972c-.829 0-1.5-.672-1.5-1.5v-6.261c0-.828.671-1.5 1.5-1.5s1.5.672 1.5 1.5v6.261c0 .828-.672 1.5-1.5 1.5z" fill="#002f94"/><path d="m32 246.07c-1.103 0-2-.897-2-2v-24.127c0-.801.476-1.522 1.212-1.838l8.792-3.768c8.101-3.47 13.336-11.408 13.336-20.222v-105.121c0-8.813-5.235-16.752-13.336-20.223l-8.791-3.767c-.737-.316-1.213-1.037-1.213-1.838v-24.126c0-1.103.897-2 2-2h195.86c1.103 0 2 .897 2 2v205.03c0 1.103-.897 2-2 2z" fill="url(#l)"/></svg>